<svg id="Group_7444" data-name="Group 7444" xmlns="http://www.w3.org/2000/svg" width="1600" height="900" viewBox="0 0 1600 900">
  <rect id="Rectangle_2471" data-name="Rectangle 2471" width="1600" height="900" fill="#f7f9fc"/>
  <path id="Rectangle_2472" data-name="Rectangle 2472" d="M120,0h79a0,0,0,0,1,0,0V246A120,120,0,0,1,79,366H0a0,0,0,0,1,0,0V120A120,120,0,0,1,120,0Z" transform="translate(732 518)" fill="#eaf2ff"/>
  <path id="Rectangle_2473" data-name="Rectangle 2473" d="M120,0h79a0,0,0,0,1,0,0V246A120,120,0,0,1,79,366H0a0,0,0,0,1,0,0V120A120,120,0,0,1,120,0Z" transform="translate(1381)" fill="#eaf2ff"/>
</svg>
