<svg xmlns="http://www.w3.org/2000/svg" width="163.164" height="23.307" viewBox="0 0 163.164 23.307">
  <g id="layer1" transform="translate(0 0)">
    <g id="g1659" transform="translate(0 0)">
      <path id="path1591" d="M175.522,594.259H170.86a11.139,11.139,0,0,0-7.733,2.543,9.462,9.462,0,0,0-2.831,7.354v13.321h5.411V603.691a4.256,4.256,0,0,1,1.366-3.406,5.556,5.556,0,0,1,3.787-1.23h4.662a5.562,5.562,0,0,1,3.787,1.23,4.311,4.311,0,0,1,1.366,3.406v13.788h5.412V604.156a9.457,9.457,0,0,0-2.833-7.354,11.134,11.134,0,0,0-7.731-2.543" transform="translate(-150.419 -594.222)" fill="#004291"/>
      <path id="path1593" d="M202.73,594.259h-4.662a11.142,11.142,0,0,0-7.732,2.543c-.045.044-.083.088-.127.13-.045-.044-.083-.088-.128-.13a11.136,11.136,0,0,0-7.732-2.543h-4.662a11.138,11.138,0,0,0-7.732,2.543,9.454,9.454,0,0,0-2.832,7.354v13.321h5.405V603.691a4.255,4.255,0,0,1,1.367-3.406,5.555,5.555,0,0,1,3.787-1.23h4.662a5.57,5.57,0,0,1,3.788,1.23,4.312,4.312,0,0,1,1.366,3.406v13.788h5.412V603.691a4.256,4.256,0,0,1,1.366-3.406,5.558,5.558,0,0,1,3.787-1.23h4.662a5.562,5.562,0,0,1,3.786,1.23,4.311,4.311,0,0,1,1.366,3.406v13.788h5.41V604.156a9.453,9.453,0,0,0-2.832-7.354,11.137,11.137,0,0,0-7.732-2.543" transform="translate(-127.172 -594.222)" fill="#004291"/>
      <path id="path1595" d="M210.932,604.993a4.149,4.149,0,0,0,.875-1.649,11.311,11.311,0,0,0,.281-2.892,5.505,5.505,0,0,0-2.484-5.059,10.957,10.957,0,0,0-5.506-1.134H186.9v23.22h18.628a8.623,8.623,0,0,0,5.786-1.655c1.275-1.12,1.921-2.969,1.921-5.5,0-2.58-.774-4.372-2.3-5.335m-6.77-2.059H192.311v-3.846h11.818c2.268,0,2.581.952,2.581,1.981,0,.966-.309,1.865-2.55,1.865m-11.849,4.855H204.9c2.608,0,2.96,1.159,2.96,2.293,0,1.8-.816,2.54-2.8,2.54h-12.75Z" transform="translate(-59.777 -594.222)" fill="#004291"/>
      <rect id="rect1597" width="5.499" height="23.196" transform="translate(157.665 0.06)" fill="#004291"/>
      <path id="path1599" d="M178.416,602.244a.274.274,0,0,0,.035-.056l.076-.11c.069-.094.136-.183.209-.273.031-.04.045-.059.061-.078l.035-.039a5.933,5.933,0,0,1,.48-.494l.058-.052c.093-.085.2-.17.3-.256.055-.044.106-.086.163-.13l.026-.018a7.856,7.856,0,0,1,.959-.617l.117-.061c.244-.13.493-.249.753-.358l.026-.013c.125-.052.256-.1.39-.155l.176-.063c.233-.083.479-.162.733-.233.077-.022.157-.047.239-.068a.9.9,0,0,0,.1-.031,1.576,1.576,0,0,1,.157-.044c.431-.117.847-.2,1.234-.276h0c.183-.035.36-.064.528-.09h.009l.048-.009.071-.009h.022c.148-.022.288-.039.417-.056l.04,0h0c.133-.018.256-.031.37-.044l.069,0h.114l.217-.018h.026l.117-.009h.044q.2-.021.394-.022h16.044a3.963,3.963,0,0,1,3.106,1.483l-.054-.294c-.026-.117-.05-.226-.079-.342l-.031-.126c-.031-.117-.064-.233-.1-.35l-.091-.279q-.081-.239-.183-.479v-.013a6.032,6.032,0,0,0-4.578-3.742l-.117-.027c-.108-.022-.22-.039-.333-.055h-.044l-.334-.039q-.133-.013-.268-.022c-.059,0-.117-.009-.18-.013h-.035c-.161-.009-.324-.013-.493-.013H187.541c-4.945,0-8.986,3.579-9.13,8.027" transform="translate(-88.682 -594.218)" fill="#004291"/>
      <path id="path1601" d="M191.67,610.315c-.013.055-.026.117-.044.171v.018c-.018.059-.031.117-.051.183l-.009.022c-.018.062-.04.128-.062.195l0,.018c-.022.07-.049.142-.076.215v.009a7.7,7.7,0,0,1-.816,1.569l-.009.013q-.09.133-.186.267l-.013.018c-.069.092-.139.184-.213.278h0a8.955,8.955,0,0,1-.8.877l-.009.009c-.094.09-.191.181-.293.269l-.056.049c-.087.077-.176.153-.268.233a.947.947,0,0,1-.081.063c-.089.072-.181.143-.274.214l-.091.066c-.1.071-.2.143-.3.214l-.083.058c-.123.083-.249.164-.38.245l-.031.018q-.43.265-.919.516l-.125.063c-.117.059-.242.116-.367.178l-.173.078c-.117.052-.233.1-.35.154l-.2.081c-.118.048-.239.1-.363.143l-.209.079c-.13.047-.263.094-.4.139-.069.022-.135.048-.205.07q-.233.077-.489.153l-.142.044c-.209.061-.422.117-.642.177h3.639c5.581,0,10.122-3.713,10.122-8.275v-6.725c0-4.3-4.029-7.842-9.163-8.24l.013,0,.045.022c.117.054.215.1.311.149l.09.047q.159.084.307.174l.064.04c.1.065.186.117.265.172l.07.048c.09.063.176.13.261.2l.091.075c.076.062.153.126.226.193.018.018.044.04.067.062.067.061.129.117.191.184l.071.074c.078.081.147.155.211.233a1.06,1.06,0,0,1,.074.086c.045.055.094.117.141.175l.064.081a2.573,2.573,0,0,1,.166.233l.067.1c.044.064.085.13.123.193l.064.1c.045.074.081.139.117.206l.062.117c.04.074.081.152.117.227l.129.275c.018.045.035.076.047.108.031.065.064.146.1.227l.04.1c.026.064.048.13.069.193a.715.715,0,0,1,.031.085l.058.171.047.152c.026.081.049.161.071.233l.07.269c0,.022.013.052.022.084.018.069.035.15.052.233l.013.058.09.491a.4.4,0,0,1,.009.054c.026.15.045.309.061.459v.031c.013.125.026.271.04.4.009.117.018.26.026.4l.022.932v6.971a3.7,3.7,0,0,1-.124.945h0a.123.123,0,0,1,0,.013" transform="translate(-73.259 -594.214)" fill="#004291"/>
      <path id="path1603" d="M179.755,597.606a5.339,5.339,0,0,0-.428.438c-.009.013-.027.031-.045.052l-.047.062c-.064.079-.125.16-.184.24l-.071.1c-.052.08-.107.166-.156.247l-.031.054c-.048.084-.092.168-.13.246-.047.1-.081.177-.111.252a1.959,1.959,0,0,0-.071.2l-.009.026c-.013.049-.026.088-.035.122l-.009.035c0,.026-.013.045-.013.063l0,.031v5.4c0,4.565,4.079,8.275,9.091,8.275h7.524c6.015-.786,8.9-2.956,10.285-4.855a4,4,0,0,1-2.024.546H187.24a3.881,3.881,0,0,1-3.93-3.821v-7a3.77,3.77,0,0,1,1.347-2.882l-.984.226c-.047.013-.089.026-.13.035l-.126.035-.222.062c-.242.07-.477.144-.7.224l-.164.058c-.128.049-.256.1-.378.149l-.026.013c-.233.1-.466.21-.692.331l-.088.047a7.243,7.243,0,0,0-.878.56l-.052.04c-.145.117-.285.233-.409.341Z" transform="translate(-88.677 -590.178)" fill="#004291"/>
      <rect id="rect1605" width="5.515" height="23.267" transform="translate(0 0.039)" fill="#004291"/>
      <path id="path1609" d="M158.04,617.544V594.277h5.515v23.267Zm109.67-.035q.328-.086.642-.177l.143-.044c.168-.05.329-.1.488-.153.07-.022.136-.047.205-.071q.2-.068.4-.139l.209-.078c.124-.048.245-.094.365-.143l.2-.081c.117-.05.233-.1.35-.155l.173-.078c.125-.058.246-.117.367-.179l.125-.063c.324-.166.631-.34.918-.516l.031-.018c.13-.082.256-.164.38-.245l.084-.059c.1-.071.2-.143.3-.215l.092-.066c.092-.071.184-.142.273-.215.026-.022.054-.04.079-.064.093-.074.181-.15.269-.226l.056-.05c.1-.09.2-.179.291-.27l.013-.009a8.794,8.794,0,0,0,.8-.875h0q.11-.14.212-.277l.013-.022c.064-.09.126-.178.185-.267a.065.065,0,0,0,.013-.013,7.6,7.6,0,0,0,.816-1.569.07.07,0,0,1,0-.009c.026-.072.052-.144.077-.215a.086.086,0,0,0,0-.018c.022-.067.044-.133.06-.195,0-.009,0-.013.013-.022.018-.063.035-.117.05-.183v-.018c.013-.059.031-.117.044-.171a.042.042,0,0,0,0-.013,3.724,3.724,0,0,0,.124-.945v-6.971l-.022-.932a3.569,3.569,0,0,0-.026-.4c-.013-.134-.026-.279-.04-.4v-.035c-.013-.15-.035-.309-.061-.459a.4.4,0,0,0-.013-.053l-.09-.493-.013-.057c-.018-.081-.035-.162-.052-.233a.761.761,0,0,0-.022-.085l-.07-.269c-.022-.078-.045-.157-.071-.233l-.047-.152-.058-.171c-.013-.031-.022-.064-.031-.084-.022-.065-.045-.13-.07-.195l-.04-.094c-.031-.081-.065-.162-.1-.227-.013-.031-.026-.064-.047-.11l-.13-.275c-.035-.077-.077-.153-.117-.226l-.063-.117c-.04-.067-.074-.133-.117-.206l-.064-.1c-.04-.065-.081-.13-.124-.195l-.067-.094c-.052-.079-.111-.156-.166-.233-.026-.031-.049-.06-.065-.081-.047-.063-.1-.117-.142-.175a.786.786,0,0,0-.073-.085c-.064-.077-.132-.15-.21-.233-.026-.026-.049-.052-.071-.074-.061-.064-.125-.125-.191-.185-.022-.022-.049-.045-.067-.061-.074-.068-.15-.132-.225-.195l-.092-.074c-.085-.066-.17-.132-.259-.2-.026-.018-.05-.035-.071-.048-.078-.054-.159-.106-.263-.171l-.064-.039c-.1-.059-.2-.117-.307-.173l-.091-.047c-.1-.048-.195-.094-.312-.149l-.045-.022h-.013c5.128.4,9.16,3.94,9.16,8.239v6.72c0,4.565-4.545,8.275-10.121,8.275Zm-10.846,0c-5.012,0-9.091-3.714-9.091-8.275v-5.426c0-.018.013-.04.013-.064l.013-.035c.013-.035.022-.072.035-.117l.013-.026c.018-.052.04-.117.072-.2s.064-.156.111-.252c.04-.078.081-.163.13-.246l.031-.054c.048-.08.1-.166.154-.247l.072-.1c.058-.081.117-.162.183-.241l.049-.062.045-.052a5.605,5.605,0,0,1,.426-.436l.054-.047a4.895,4.895,0,0,1,.409-.342l.051-.039a7.574,7.574,0,0,1,.879-.559l.088-.046c.226-.116.453-.233.691-.331l.026-.013c.117-.053.249-.1.379-.15.054-.018.106-.04.166-.057.22-.079.454-.155.7-.225l.223-.062.127-.035a1.023,1.023,0,0,1,.127-.035l.984-.227a3.771,3.771,0,0,0-1.346,2.884v7a3.88,3.88,0,0,0,3.929,3.822h16.042a3.989,3.989,0,0,0,2.025-.547c-1.383,1.9-4.269,4.068-10.284,4.855Zm28.294-.013V594.275h17.2a10.97,10.97,0,0,1,5.506,1.134,5.506,5.506,0,0,1,2.485,5.059,11.316,11.316,0,0,1-.282,2.891,4.161,4.161,0,0,1-.875,1.65c1.528.964,2.3,2.754,2.3,5.335,0,2.526-.647,4.375-1.921,5.494a8.625,8.625,0,0,1-5.787,1.656Zm5.414-4.859h12.741c1.991,0,2.8-.737,2.8-2.541,0-1.134-.35-2.293-2.96-2.293H290.562Zm0-9.691h11.85c2.24,0,2.549-.894,2.549-1.865,0-1.031-.314-1.981-2.581-1.981H290.572Zm25.13,14.548V594.3h5.5v23.193Zm-76.954,0V603.707a4.312,4.312,0,0,0-1.366-3.405,5.56,5.56,0,0,0-3.788-1.229h-4.662a5.555,5.555,0,0,0-3.787,1.229,4.255,4.255,0,0,0-1.367,3.405v13.788h-5.412V603.707A4.312,4.312,0,0,0,217,600.3a5.565,5.565,0,0,0-3.789-1.229h-4.662a5.555,5.555,0,0,0-3.787,1.229,4.252,4.252,0,0,0-1.367,3.405v13.787h-5.41V604.174a9.455,9.455,0,0,1,2.831-7.355,11.135,11.135,0,0,1,7.732-2.544h4.662a11.133,11.133,0,0,1,7.733,2.543c.045.04.084.087.127.13.045-.044.083-.09.13-.13a11.136,11.136,0,0,1,7.731-2.543h4.662a11.131,11.131,0,0,1,7.732,2.543,9.452,9.452,0,0,1,2.831,7.355v13.321Zm-50.455,0V603.707a4.313,4.313,0,0,0-1.366-3.406,5.561,5.561,0,0,0-3.788-1.229h-4.662a5.552,5.552,0,0,0-3.785,1.229,4.256,4.256,0,0,0-1.366,3.405v13.787h-5.412V604.174a9.462,9.462,0,0,1,2.832-7.355,11.136,11.136,0,0,1,7.732-2.544h4.662a11.135,11.135,0,0,1,7.733,2.543,9.462,9.462,0,0,1,2.833,7.355v13.321Zm68.614-23.258H268.82c.17,0,.333,0,.494.013h.035l.18.013a2.682,2.682,0,0,1,.268.022c.117.009.226.022.336.035h.04c.117.018.225.035.334.055l.116.026a6.034,6.034,0,0,1,4.578,3.743v.014q.1.24.183.48l.091.28c.04.117.071.233.1.35l.031.126c.031.117.055.233.079.342l.054.294a3.967,3.967,0,0,0-3.106-1.484H256.6c-.137,0-.276.009-.394.018h-.044l-.117.009h-.026l-.217.018h-.181c-.117.013-.233.026-.368.044h-.04c-.13.018-.27.035-.419.057h-.022l-.072.009-.049.009h-.013c-.169.026-.35.057-.529.091h0c-.387.072-.8.162-1.234.276-.057.013-.107.031-.159.044s-.067.022-.1.031l-.24.066c-.253.074-.5.153-.732.233l-.177.061c-.133.052-.266.1-.389.155l-.026.013c-.261.11-.509.233-.753.359l-.117.061a7.821,7.821,0,0,0-.96.617l-.027.018c-.057.044-.11.087-.164.13-.1.086-.209.171-.3.257l-.058.052a5.913,5.913,0,0,0-.48.493l-.035.04c-.013.022-.031.04-.061.079-.074.09-.14.179-.21.271l-.074.11c-.013.018-.026.04-.035.055.142-4.4,4.183-7.982,9.129-7.982Z" transform="translate(-158.04 -594.237)" fill="#0b4dcc"/>
    </g>
  </g>
</svg>
